<mxfile host="app.diagrams.net" modified="2023-10-04T13:19:03.030Z" agent="Mozilla/5.0 (Windows NT 10.0; Win64; x64) AppleWebKit/537.36 (KHTML, like Gecko) Chrome/117.0.0.0 Safari/537.36" etag="pglGtfISqAWq00-LmSO0" version="21.6.5" type="device">
  <diagram name="Página-1" id="9OB7CAJH9pZMkBVKjv8Y">
    <mxGraphModel dx="1434" dy="782" grid="1" gridSize="10" guides="1" tooltips="1" connect="1" arrows="1" fold="1" page="1" pageScale="1" pageWidth="827" pageHeight="1169" math="0" shadow="0">
      <root>
        <mxCell id="0" />
        <mxCell id="1" parent="0" />
        <mxCell id="_RJMdZrYsmj9zXsIBDps-9" style="edgeStyle=orthogonalEdgeStyle;rounded=0;orthogonalLoop=1;jettySize=auto;html=1;exitX=0.5;exitY=0.5;exitDx=0;exitDy=0;exitPerimeter=0;entryX=0;entryY=0.5;entryDx=0;entryDy=0;" edge="1" parent="1" source="_RJMdZrYsmj9zXsIBDps-1" target="_RJMdZrYsmj9zXsIBDps-2">
          <mxGeometry relative="1" as="geometry" />
        </mxCell>
        <mxCell id="_RJMdZrYsmj9zXsIBDps-1" value="Vendedor" style="shape=umlActor;verticalLabelPosition=bottom;verticalAlign=top;html=1;outlineConnect=0;" vertex="1" parent="1">
          <mxGeometry x="200" y="365" width="30" height="60" as="geometry" />
        </mxCell>
        <mxCell id="_RJMdZrYsmj9zXsIBDps-6" style="rounded=0;orthogonalLoop=1;jettySize=auto;html=1;exitX=1;exitY=0;exitDx=0;exitDy=0;entryX=0;entryY=1;entryDx=0;entryDy=0;dashed=1;endArrow=open;endFill=0;" edge="1" parent="1" source="_RJMdZrYsmj9zXsIBDps-2" target="_RJMdZrYsmj9zXsIBDps-3">
          <mxGeometry relative="1" as="geometry" />
        </mxCell>
        <mxCell id="_RJMdZrYsmj9zXsIBDps-2" value="[RF001]&lt;br&gt;Vender Automovel" style="ellipse;whiteSpace=wrap;html=1;" vertex="1" parent="1">
          <mxGeometry x="350" y="360" width="90" height="70" as="geometry" />
        </mxCell>
        <mxCell id="_RJMdZrYsmj9zXsIBDps-3" value="[RF002]&lt;br&gt;Escolhe ruma alocação ativa" style="ellipse;whiteSpace=wrap;html=1;" vertex="1" parent="1">
          <mxGeometry x="470" y="240" width="90" height="70" as="geometry" />
        </mxCell>
        <mxCell id="_RJMdZrYsmj9zXsIBDps-4" value="[RF003]&lt;br&gt;Escolher automovel" style="ellipse;whiteSpace=wrap;html=1;" vertex="1" parent="1">
          <mxGeometry x="540" y="350" width="100" height="60" as="geometry" />
        </mxCell>
        <mxCell id="_RJMdZrYsmj9zXsIBDps-5" value="[RF004&lt;br&gt;]Escolher Cliente e Concessionaria" style="ellipse;whiteSpace=wrap;html=1;" vertex="1" parent="1">
          <mxGeometry x="490" y="470" width="90" height="70" as="geometry" />
        </mxCell>
        <mxCell id="_RJMdZrYsmj9zXsIBDps-7" style="rounded=0;orthogonalLoop=1;jettySize=auto;html=1;exitX=1;exitY=0.5;exitDx=0;exitDy=0;entryX=0;entryY=0.5;entryDx=0;entryDy=0;dashed=1;endArrow=open;endFill=0;" edge="1" parent="1" source="_RJMdZrYsmj9zXsIBDps-2" target="_RJMdZrYsmj9zXsIBDps-4">
          <mxGeometry relative="1" as="geometry">
            <mxPoint x="437" y="380" as="sourcePoint" />
            <mxPoint x="493" y="310" as="targetPoint" />
          </mxGeometry>
        </mxCell>
        <mxCell id="_RJMdZrYsmj9zXsIBDps-8" style="rounded=0;orthogonalLoop=1;jettySize=auto;html=1;exitX=1;exitY=1;exitDx=0;exitDy=0;entryX=0.056;entryY=0.171;entryDx=0;entryDy=0;dashed=1;endArrow=open;endFill=0;entryPerimeter=0;" edge="1" parent="1" source="_RJMdZrYsmj9zXsIBDps-2" target="_RJMdZrYsmj9zXsIBDps-5">
          <mxGeometry relative="1" as="geometry">
            <mxPoint x="447" y="390" as="sourcePoint" />
            <mxPoint x="503" y="320" as="targetPoint" />
          </mxGeometry>
        </mxCell>
        <mxCell id="_RJMdZrYsmj9zXsIBDps-10" value="DCU - Diagrama de casos de Uso&lt;br&gt;Cenário: Venda de automóvel" style="text;html=1;strokeColor=none;fillColor=none;align=center;verticalAlign=middle;whiteSpace=wrap;rounded=0;" vertex="1" parent="1">
          <mxGeometry x="300" y="110" width="190" height="50" as="geometry" />
        </mxCell>
      </root>
    </mxGraphModel>
  </diagram>
</mxfile>
